# xmcd
#
# Track frame offsets:
#	150
#	15697
#	32312
#	49787
#	61872
#	78270
#	96340
#	112502
#
# Disc length: 1701 seconds
#
# Revision: 1
# Processed by: cddbd v1.5.2PL0 Copyright (c) Steve Scherf et al.
# Submitted via: audiograbber 1.83.01
#
DISCID=4e06a308
DTITLE=Marleen Fawcett - Marleen Fawcett
DYEAR=1996
DGENRE=Country
TTITLE0=Fight to the Finish
TTITLE1=Pieces of Love
TTITLE2=Behind Closed Door
TTITLE3=Goin' Nowhere
TTITLE4=Right Direction
TTITLE5=Just Leave Me Alone
TTITLE6=One of Those Nights
TTITLE7=Change of Season
EXTD=
EXTT0=
EXTT1=
EXTT2=
EXTT3=
EXTT4=
EXTT5=
EXTT6=
EXTT7=
PLAYORDER=
